<?xml version="1.0" encoding="utf-8"?>
<!-- Generator: Adobe Illustrator 25.2.0, SVG Export Plug-In . SVG Version: 6.00 Build 0)  -->
<svg version="1.1" id="Calque_1" xmlns="http://www.w3.org/2000/svg" xmlns:xlink="http://www.w3.org/1999/xlink" x="0px" y="0px"
	 viewBox="0 0 190.38 100.31" style="enable-background:new 0 0 190.38 100.31;" xml:space="preserve">
<style type="text/css">
	.st0{fill:#020203;}
	.st1{fill:#FFFFFF;}
</style>
<rect x="45.03" y="-45.03" transform="matrix(6.123234e-17 -1 1 6.123234e-17 45.0337 145.3483)" class="st0" width="100.31" height="190.38"/>
<g>
	<polygon class="st1" points="130.48,60.54 103.13,13.15 75.77,60.54 	"/>
	<path class="st1" d="M175.88,36.84c0-2.99-0.56-5.94-1.66-8.72c-1.19-3.01-2.99-5.74-5.28-8.03c-2.29-2.29-5.02-4.08-8.03-5.28
		c-2.78-1.1-5.73-1.66-8.72-1.66c-2.99,0-5.94,0.56-8.72,1.66c-3.01,1.19-5.74,2.99-8.03,5.28c-2.29,2.29-4.08,5.02-5.28,8.03
		c-1.1,2.78-1.66,5.73-1.66,8.72c0,2.99,0.56,5.94,1.66,8.72c1.19,3.01,2.99,5.74,5.28,8.03c2.29,2.29,5.02,4.08,8.03,5.28
		c2.78,1.1,5.73,1.66,8.72,1.66c2.99,0,5.94-0.56,8.72-1.66c3.01-1.19,5.74-2.99,8.03-5.28c2.29-2.29,4.08-5.02,5.28-8.03
		C175.31,42.79,175.88,39.83,175.88,36.84z"/>
	<rect x="56.1" y="13.15" class="st1" width="14.7" height="47.38"/>
	<path class="st1" d="M27.28,13.15c-4.9,0-9.8,0-14.7,0c0,15.79,0,31.59,0,47.38c4.9,0,9.8,0,14.7,0c6.28,0,12.31-2.5,16.75-6.94
		c4.44-4.44,6.94-10.47,6.94-16.75c0-6.28-2.5-12.31-6.94-16.75C39.59,15.65,33.56,13.15,27.28,13.15z"/>
	<path class="st1" d="M14.28,73.62c-0.6,0-1.03,0.13-1.3,0.4c-0.27,0.27-0.4,0.7-0.4,1.3c0,3.35,0,6.71,0,10.06
		c0,0.44,0.04,0.81,0.11,1.09c0.08,0.27,0.25,0.49,0.51,0.65c0.26,0.15,0.64,0.22,1.14,0.22c1.21,0,2.42,0,3.62,0
		c0.63,0,1.2-0.04,1.69-0.12c0.51-0.08,0.98-0.22,1.41-0.42c0.44-0.2,0.84-0.46,1.21-0.8c0.47-0.43,0.85-0.92,1.15-1.46
		c0.3-0.55,0.52-1.16,0.66-1.84c0.14-0.68,0.22-1.43,0.22-2.26c0-2.5-0.71-4.36-2.14-5.58c-0.55-0.48-1.16-0.81-1.83-0.98
		c-0.67-0.17-1.48-0.26-2.42-0.26C16.7,73.62,15.49,73.62,14.28,73.62z"/>
	<path class="st1" d="M33.71,83.01c0.67,0,1.19-0.09,1.55-0.28c0.37-0.19,0.55-0.61,0.55-1.25c0-0.69-0.18-1.37-0.53-2.04
		c-0.36-0.67-0.89-1.21-1.61-1.63c-0.71-0.42-1.57-0.64-2.56-0.64c-0.77,0-1.47,0.12-2.1,0.37c-0.63,0.24-1.16,0.6-1.59,1.06
		c-0.43,0.46-0.76,1.02-0.98,1.67c-0.22,0.64-0.34,1.34-0.34,2.1c0,1.6,0.46,2.87,1.37,3.81c0.91,0.94,2.19,1.4,3.83,1.4
		c0.72,0,1.35-0.09,1.9-0.28c0.56-0.19,1.01-0.42,1.38-0.7c0.37-0.29,0.64-0.58,0.82-0.89c0.18-0.31,0.27-0.58,0.27-0.81
		c0-0.26-0.08-0.46-0.24-0.61c-0.16-0.14-0.37-0.22-0.64-0.22c-0.24,0-0.43,0.06-0.56,0.17c-0.32,0.3-0.58,0.54-0.78,0.71
		c-0.2,0.17-0.42,0.34-0.66,0.5c-0.24,0.15-0.48,0.26-0.74,0.34c-0.25,0.07-0.53,0.1-0.83,0.1c-0.46,0-0.87-0.11-1.25-0.34
		c-0.37-0.22-0.68-0.56-0.91-1c-0.22-0.44-0.34-0.95-0.35-1.54C30.37,83.01,32.04,83.01,33.71,83.01z"/>
	<path class="st0" d="M28.71,81.56c1.54,0,3.09,0,4.63,0c-0.06-0.87-0.3-1.53-0.71-1.96c-0.41-0.44-0.94-0.66-1.61-0.66
		c-0.64,0-1.16,0.22-1.57,0.66C29.04,80.05,28.79,80.7,28.71,81.56z"/>
	<path class="st1" d="M42.76,86.02c0,0.5,0.12,0.88,0.35,1.15c0.24,0.27,0.54,0.4,0.92,0.4c0.38,0,0.69-0.13,0.93-0.38
		c0.24-0.26,0.37-0.65,0.37-1.17c0-3.69,0-7.39,0-11.08c0-0.52-0.12-0.9-0.36-1.16c-0.24-0.26-0.55-0.39-0.94-0.39
		c-0.39,0-0.7,0.13-0.93,0.39c-0.22,0.26-0.34,0.65-0.34,1.16C42.76,78.64,42.76,82.33,42.76,86.02z"/>
	<polygon class="st1" points="49.93,78.51 50.37,75.93 50.37,73.62 47.49,73.62 47.49,75.93 47.99,78.51 	"/>
	<path class="st1" d="M52.85,85.88c0,0.56,0.13,0.99,0.38,1.27c0.26,0.28,0.59,0.42,0.99,0.42c0.42,0,0.76-0.14,1.01-0.42
		c0.26-0.28,0.39-0.71,0.39-1.27c0-3.6,0-7.21,0-10.81c0-0.57-0.13-0.99-0.39-1.26c-0.26-0.28-0.59-0.42-1.01-0.42
		c-0.41,0-0.74,0.14-0.99,0.42c-0.26,0.28-0.38,0.7-0.38,1.26C52.85,78.68,52.85,82.28,52.85,85.88z"/>
	<path class="st1" d="M65.56,86.12c0,0.47,0.11,0.83,0.34,1.09c0.23,0.25,0.52,0.37,0.87,0.37c0.36,0,0.65-0.12,0.87-0.37
		c0.22-0.24,0.34-0.61,0.34-1.1c0-3.76,0-7.51,0-11.27c0-0.48-0.11-0.84-0.32-1.09c-0.21-0.25-0.5-0.37-0.89-0.37
		c-0.39,0-0.69,0.13-0.9,0.4c-0.21,0.27-0.31,0.66-0.31,1.19c0,1.26,0,2.51,0,3.77c-0.48-0.52-0.97-0.91-1.48-1.16
		c-0.51-0.26-1.13-0.38-1.86-0.38c-1.27,0-2.3,0.45-3.08,1.34c-0.78,0.89-1.17,2.14-1.17,3.73c0,0.76,0.1,1.46,0.29,2.11
		c0.2,0.65,0.49,1.21,0.87,1.69c0.38,0.48,0.83,0.85,1.35,1.11c0.52,0.26,1.09,0.38,1.7,0.38c0.46,0,0.89-0.07,1.27-0.2
		c0.39-0.12,0.76-0.31,1.09-0.55c0.34-0.25,0.68-0.57,1.02-0.96C65.56,85.95,65.56,86.03,65.56,86.12z"/>
	<path class="st0" d="M60.53,82.36c0,0.69,0.11,1.28,0.32,1.77c0.22,0.49,0.51,0.85,0.89,1.1c0.37,0.24,0.78,0.37,1.23,0.37
		c0.45,0,0.86-0.12,1.23-0.35c0.37-0.24,0.67-0.6,0.89-1.08c0.22-0.49,0.34-1.09,0.34-1.82c0-0.68-0.11-1.26-0.34-1.75
		c-0.22-0.49-0.52-0.87-0.9-1.12c-0.37-0.26-0.79-0.39-1.24-0.39c-0.47,0-0.89,0.13-1.25,0.4c-0.37,0.26-0.66,0.64-0.86,1.14
		C60.63,81.13,60.53,81.71,60.53,82.36z"/>
	<path class="st1" d="M77.7,83.01c0.67,0,1.19-0.09,1.55-0.28c0.37-0.19,0.55-0.61,0.55-1.25c0-0.69-0.18-1.37-0.53-2.04
		c-0.36-0.67-0.89-1.21-1.61-1.63c-0.71-0.42-1.57-0.64-2.56-0.64c-0.77,0-1.47,0.12-2.1,0.37c-0.63,0.24-1.16,0.6-1.59,1.06
		c-0.43,0.46-0.76,1.02-0.98,1.67c-0.22,0.64-0.34,1.34-0.34,2.1c0,1.6,0.46,2.87,1.37,3.81c0.91,0.94,2.19,1.4,3.83,1.4
		c0.72,0,1.35-0.09,1.9-0.28c0.56-0.19,1.01-0.42,1.38-0.7c0.37-0.29,0.64-0.58,0.82-0.89c0.18-0.31,0.27-0.58,0.27-0.81
		c0-0.26-0.08-0.46-0.24-0.61c-0.16-0.14-0.37-0.22-0.64-0.22c-0.24,0-0.43,0.06-0.56,0.17c-0.32,0.3-0.58,0.54-0.78,0.71
		c-0.2,0.17-0.42,0.34-0.66,0.5c-0.24,0.15-0.48,0.26-0.74,0.34c-0.25,0.07-0.53,0.1-0.83,0.1c-0.46,0-0.87-0.11-1.25-0.34
		c-0.37-0.22-0.68-0.56-0.91-1c-0.22-0.44-0.34-0.95-0.35-1.54C74.37,83.01,76.03,83.01,77.7,83.01z"/>
	<path class="st0" d="M72.7,81.56c1.54,0,3.09,0,4.63,0c-0.06-0.87-0.3-1.53-0.71-1.96c-0.41-0.44-0.94-0.66-1.61-0.66
		c-0.64,0-1.16,0.22-1.57,0.66C73.04,80.05,72.79,80.7,72.7,81.56z"/>
	<path class="st1" d="M75.32,73.52c-0.37,0-0.64,0.06-0.82,0.19c-0.18,0.12-0.39,0.41-0.64,0.87c-0.14,0.26-0.28,0.52-0.42,0.79
		c-0.16,0.26-0.24,0.45-0.24,0.55c0,0.16,0.13,0.23,0.4,0.23c0.41,0,0.79-0.09,1.14-0.27c0.14-0.07,0.38-0.27,0.74-0.59
		c0.36-0.32,0.71-0.66,1.06-1.02c0.35-0.36,0.52-0.56,0.52-0.61c0-0.09-0.16-0.14-0.48-0.14C76.17,73.52,75.74,73.52,75.32,73.52z"
		/>
	<path class="st1" d="M89.09,83.01c0.67,0,1.19-0.09,1.55-0.28c0.37-0.19,0.55-0.61,0.55-1.25c0-0.69-0.18-1.37-0.53-2.04
		c-0.36-0.67-0.89-1.21-1.61-1.63c-0.71-0.42-1.57-0.64-2.56-0.64c-0.77,0-1.47,0.12-2.1,0.37c-0.63,0.24-1.16,0.6-1.59,1.06
		c-0.43,0.46-0.76,1.02-0.98,1.67c-0.22,0.64-0.34,1.34-0.34,2.1c0,1.6,0.46,2.87,1.37,3.81c0.91,0.94,2.19,1.4,3.83,1.4
		c0.72,0,1.35-0.09,1.9-0.28c0.56-0.19,1.01-0.42,1.38-0.7c0.37-0.29,0.64-0.58,0.82-0.89c0.18-0.31,0.27-0.58,0.27-0.81
		c0-0.26-0.08-0.46-0.24-0.61c-0.16-0.14-0.37-0.22-0.64-0.22c-0.24,0-0.43,0.06-0.56,0.17c-0.32,0.3-0.58,0.54-0.78,0.71
		c-0.2,0.17-0.42,0.34-0.66,0.5c-0.24,0.15-0.48,0.26-0.74,0.34c-0.25,0.07-0.53,0.1-0.83,0.1c-0.46,0-0.87-0.11-1.25-0.34
		c-0.37-0.22-0.68-0.56-0.91-1c-0.22-0.44-0.34-0.95-0.35-1.54C85.76,83.01,87.43,83.01,89.09,83.01z"/>
	<path class="st0" d="M84.09,81.56c1.54,0,3.09,0,4.63,0c-0.06-0.87-0.3-1.53-0.71-1.96c-0.41-0.44-0.94-0.66-1.61-0.66
		c-0.64,0-1.16,0.22-1.57,0.66C84.43,80.05,84.18,80.7,84.09,81.56z"/>
	<path class="st1" d="M116.73,86.02c0,0.5,0.12,0.88,0.35,1.15c0.24,0.27,0.54,0.4,0.92,0.4c0.38,0,0.69-0.13,0.93-0.38
		c0.24-0.26,0.37-0.65,0.37-1.17c0-3.69,0-7.39,0-11.08c0-0.52-0.12-0.9-0.36-1.16c-0.24-0.26-0.55-0.39-0.94-0.39
		c-0.39,0-0.7,0.13-0.93,0.39c-0.22,0.26-0.34,0.65-0.34,1.16C116.73,78.64,116.73,82.33,116.73,86.02z"/>
	<polygon class="st1" points="123.9,78.51 124.34,75.93 124.34,73.62 121.46,73.62 121.46,75.93 121.96,78.51 	"/>
	<path class="st1" d="M132.74,73.39c-1.05,0-1.98,0.17-2.81,0.5c-0.82,0.32-1.52,0.8-2.1,1.41c-0.57,0.62-1.01,1.37-1.32,2.25
		c-0.3,0.88-0.45,1.85-0.45,2.9c0,1.03,0.14,1.99,0.43,2.87c0.29,0.89,0.72,1.64,1.29,2.27c0.57,0.63,1.28,1.12,2.12,1.47
		c0.85,0.34,1.81,0.51,2.88,0.51c1.08,0,2.04-0.17,2.87-0.51c0.84-0.34,1.54-0.82,2.12-1.46c0.57-0.64,1-1.39,1.29-2.26
		c0.29-0.87,0.43-1.83,0.43-2.89c0-1.44-0.26-2.68-0.79-3.74c-0.52-1.07-1.3-1.89-2.32-2.46C135.39,73.68,134.17,73.39,132.74,73.39
		z"/>
	<path class="st1" d="M144.07,74.85c0-0.47-0.11-0.83-0.32-1.08c-0.21-0.26-0.51-0.38-0.91-0.38c-0.37,0-0.67,0.13-0.88,0.4
		c-0.21,0.26-0.31,0.65-0.31,1.17c0,3.72,0,7.44,0,11.16c0,0.48,0.11,0.85,0.32,1.1c0.22,0.24,0.51,0.37,0.87,0.37
		c0.36,0,0.65-0.12,0.88-0.37c0.23-0.25,0.35-0.61,0.35-1.1c0-0.08,0-0.17,0-0.25c0.28,0.32,0.51,0.57,0.67,0.73
		c0.17,0.16,0.38,0.32,0.63,0.48c0.24,0.15,0.54,0.27,0.88,0.37c0.35,0.09,0.72,0.14,1.11,0.14c0.64,0,1.23-0.13,1.76-0.38
		c0.54-0.26,0.99-0.63,1.37-1.1c0.37-0.47,0.66-1.03,0.85-1.68c0.2-0.65,0.3-1.36,0.3-2.13c0-1.05-0.18-1.95-0.53-2.71
		c-0.35-0.77-0.85-1.35-1.49-1.75c-0.64-0.41-1.38-0.61-2.23-0.61c-0.74,0-1.35,0.13-1.85,0.4c-0.5,0.26-0.99,0.64-1.47,1.14
		C144.07,77.45,144.07,76.15,144.07,74.85z"/>
	<path class="st0" d="M144.19,82.44c0,1.02,0.23,1.8,0.69,2.35c0.47,0.54,1.08,0.81,1.83,0.81c0.64,0,1.2-0.28,1.66-0.83
		c0.47-0.56,0.7-1.36,0.7-2.41c0-0.67-0.1-1.25-0.29-1.74c-0.19-0.49-0.47-0.86-0.82-1.12c-0.36-0.27-0.77-0.4-1.24-0.4
		c-0.49,0-0.92,0.13-1.3,0.4c-0.38,0.26-0.68,0.65-0.9,1.15C144.3,81.15,144.19,81.75,144.19,82.44z"/>
	<path class="st1" d="M156.27,78.71c0-0.51-0.12-0.89-0.36-1.14c-0.23-0.26-0.53-0.38-0.91-0.38c-0.39,0-0.7,0.13-0.94,0.38
		c-0.24,0.26-0.36,0.64-0.36,1.14c0,2.87,0,5.74,0,8.61c0,0.69-0.06,1.17-0.18,1.44c-0.11,0.27-0.34,0.4-0.68,0.4
		c-0.06,0-0.18-0.01-0.35-0.02c-0.16-0.01-0.28-0.02-0.37-0.04c-0.09-0.01-0.15-0.01-0.19-0.01c-0.29,0-0.53,0.09-0.71,0.28
		c-0.18,0.19-0.27,0.44-0.27,0.74c0,0.41,0.2,0.71,0.6,0.93c0.4,0.21,0.99,0.32,1.76,0.32c1.38,0,2.28-0.54,2.71-1.63
		c0.07-0.17,0.13-0.46,0.17-0.85c0.04-0.39,0.07-0.89,0.07-1.51C156.27,84.49,156.27,81.6,156.27,78.71z"/>
	<path class="st1" d="M155,76c0.34,0,0.64-0.11,0.89-0.33c0.25-0.22,0.37-0.53,0.37-0.93c0-0.41-0.13-0.71-0.38-0.93
		s-0.55-0.32-0.88-0.32c-0.34,0-0.65,0.12-0.91,0.36c-0.26,0.23-0.38,0.53-0.38,0.89c0,0.4,0.12,0.71,0.37,0.93
		C154.34,75.89,154.65,76,155,76z"/>
	<path class="st1" d="M166.02,83.01c0.67,0,1.19-0.09,1.55-0.28c0.37-0.19,0.55-0.61,0.55-1.25c0-0.69-0.18-1.37-0.53-2.04
		c-0.36-0.67-0.89-1.21-1.61-1.63c-0.71-0.42-1.57-0.64-2.56-0.64c-0.77,0-1.47,0.12-2.1,0.37c-0.63,0.24-1.16,0.6-1.59,1.06
		c-0.43,0.46-0.76,1.02-0.98,1.67c-0.22,0.64-0.34,1.34-0.34,2.1c0,1.6,0.46,2.87,1.37,3.81c0.91,0.94,2.19,1.4,3.83,1.4
		c0.72,0,1.35-0.09,1.9-0.28c0.56-0.19,1.01-0.42,1.38-0.7c0.37-0.29,0.64-0.58,0.82-0.89c0.18-0.31,0.27-0.58,0.27-0.81
		c0-0.26-0.08-0.46-0.24-0.61c-0.16-0.14-0.37-0.22-0.64-0.22c-0.24,0-0.43,0.06-0.56,0.17c-0.32,0.3-0.58,0.54-0.78,0.71
		c-0.2,0.17-0.42,0.34-0.66,0.5c-0.24,0.15-0.48,0.26-0.74,0.34c-0.25,0.07-0.53,0.1-0.83,0.1c-0.46,0-0.87-0.11-1.25-0.34
		c-0.37-0.22-0.68-0.56-0.91-1c-0.22-0.44-0.34-0.95-0.35-1.54C162.69,83.01,164.35,83.01,166.02,83.01z"/>
	<path class="st0" d="M161.02,81.56c1.54,0,3.09,0,4.63,0c-0.06-0.87-0.3-1.53-0.71-1.96c-0.41-0.44-0.94-0.66-1.61-0.66
		c-0.64,0-1.16,0.22-1.57,0.66C161.36,80.05,161.11,80.7,161.02,81.56z"/>
	<path class="st1" d="M170.42,77.41c-0.39,0-0.68,0.09-0.89,0.26c-0.2,0.17-0.3,0.39-0.3,0.66c0,0.27,0.1,0.49,0.29,0.66
		c0.19,0.17,0.47,0.26,0.84,0.26c0.11,0,0.22,0,0.34,0c0,1.64,0,3.27,0,4.91c0,0.79,0.06,1.43,0.19,1.9
		c0.13,0.47,0.4,0.85,0.81,1.11c0.41,0.27,1.02,0.4,1.82,0.4c0.84,0,1.49-0.11,1.94-0.33c0.45-0.22,0.67-0.53,0.67-0.95
		c0-0.24-0.08-0.45-0.25-0.61c-0.16-0.17-0.35-0.25-0.55-0.25c-0.14,0-0.34,0.03-0.6,0.08c-0.26,0.05-0.46,0.07-0.61,0.07
		c-0.27,0-0.47-0.07-0.6-0.2c-0.12-0.14-0.19-0.31-0.22-0.52c-0.02-0.22-0.04-0.53-0.04-0.93c0-1.57,0-3.13,0-4.7
		c0.16,0,0.32,0,0.48,0c0.51,0,0.89-0.07,1.16-0.21c0.27-0.14,0.41-0.38,0.41-0.72c0-0.27-0.1-0.49-0.29-0.66
		c-0.19-0.17-0.46-0.26-0.82-0.26c-0.31,0-0.62,0-0.94,0c0-0.58,0-1.16,0-1.74c0-0.43-0.02-0.76-0.07-0.99
		c-0.04-0.24-0.15-0.44-0.33-0.6c-0.26-0.24-0.56-0.37-0.88-0.37c-0.23,0-0.44,0.06-0.63,0.17c-0.19,0.11-0.33,0.25-0.43,0.42
		c-0.1,0.17-0.16,0.37-0.19,0.61c-0.02,0.23-0.03,0.55-0.03,0.96c0,0.51,0,1.02,0,1.54C170.61,77.41,170.51,77.41,170.42,77.41z"/>
	<rect x="12.58" y="66.19" class="st1" width="163.3" height="1.45"/>
	<path class="st1" d="M109.65,84.84c-1.2-2.95-2.39-5.9-3.59-8.86c-0.17-0.44-0.31-0.8-0.42-1.06c-0.11-0.27-0.24-0.52-0.4-0.75
		c-0.16-0.23-0.37-0.42-0.63-0.56c-0.26-0.15-0.58-0.22-0.96-0.22c-0.38,0-0.7,0.07-0.96,0.22c-0.26,0.14-0.46,0.33-0.63,0.57
		c-0.16,0.24-0.31,0.54-0.45,0.9c-0.14,0.36-0.26,0.66-0.36,0.92c-1.17,2.97-2.34,5.94-3.51,8.91c-0.14,0.36-0.25,0.63-0.31,0.83
		c-0.06,0.2-0.09,0.39-0.09,0.58c0,0.32,0.13,0.61,0.4,0.87s0.58,0.38,0.93,0.38l0,0c3.35,0,6.7,0,10.04,0l0,0
		c0.37,0,0.69-0.13,0.95-0.39c0.27-0.27,0.4-0.56,0.4-0.88C110.07,86,109.93,85.51,109.65,84.84z"/>
</g>
</svg>
